<?xml version="1.0" encoding="UTF-8" standalone="no"?>
<!-- Created with Inkscape (http://www.inkscape.org/) -->

<svg
   width="50.00005mm"
   height="49.062637mm"
   viewBox="0 0 50.00005 49.062637"
   version="1.1"
   id="svg5"
   xml:space="preserve"
   sodipodi:docname="fedora-aqua.svg"
   inkscape:version="1.2.2 (b0a8486541, 2022-12-01)"
   xmlns:inkscape="http://www.inkscape.org/namespaces/inkscape"
   xmlns:sodipodi="http://sodipodi.sourceforge.net/DTD/sodipodi-0.dtd"
   xmlns="http://www.w3.org/2000/svg"
   xmlns:svg="http://www.w3.org/2000/svg"><sodipodi:namedview
     id="namedview6"
     pagecolor="#505050"
     bordercolor="#eeeeee"
     borderopacity="1"
     inkscape:showpageshadow="0"
     inkscape:pageopacity="0"
     inkscape:pagecheckerboard="0"
     inkscape:deskcolor="#505050"
     inkscape:document-units="mm"
     showgrid="false"
     inkscape:zoom="4.6970994"
     inkscape:cx="87.394361"
     inkscape:cy="93.036141"
     inkscape:window-width="1880"
     inkscape:window-height="1051"
     inkscape:window-x="0"
     inkscape:window-y="0"
     inkscape:window-maximized="1"
     inkscape:current-layer="svg5" /><defs
     id="defs2" /><g
     id="layer1"
     transform="translate(0,-0.46870524)"
     style="fill:#089b89;fill-opacity:1"><path
       id="path359"
       d="M 67.775228,-2.4900527e-4 C 30.367086,-2.4900527e-4 0.07878234,29.732475 0.01260241,66.439189 H 6.1547071e-7 V 117.86989 H 0.01260241 c 0.01739998,8.3247 6.90224499,15.06754 15.39238659,15.06754 h 52.37584 C 105.1956,132.91363 135.47765,103.18483 135.47765,66.497997 135.4777,29.791284 105.15627,0.05995955 67.71502,0.05995955 Z M 81.546184,27.337234 l -0.007,0.0196 c 11.375309,0 22.114736,8.543908 22.114736,20.329488 0,1.093202 0.008,2.186847 -0.17502,3.426287 -0.31517,3.135324 -3.23613,5.388941 -6.417111,4.946902 -3.180986,-0.447203 -5.340564,-3.409933 -4.752275,-6.509524 0.0539,-0.353761 0.07421,-0.910177 0.07421,-1.865065 0,-6.68357 -5.575176,-9.263716 -10.845941,-9.263716 -5.269435,0 -10.018424,4.345665 -10.025424,9.263716 0.0911,5.686332 0,11.329082 0,17.006816 l 9.780389,-0.07141 c 7.636523,-0.155158 7.722605,11.124323 0.08821,11.071373 l -9.867202,0.07141 c -0.0241,4.573946 0.0364,3.746751 0.0126,6.05026 0,0 0.08339,5.594494 -0.08681,9.833597 -1.180549,12.453942 -11.991002,22.405982 -24.980949,22.405982 -13.770816,0 -25.113967,-11.0371 -25.113967,-24.576291 0.413459,-13.922978 11.732806,-24.874255 25.993292,-24.748515 l 7.95453,-0.05881 v 11.05037 l -7.95453,0.07141 h -0.04201 c -7.834982,0.22737 -14.551145,5.447824 -14.676885,13.678543 0,7.497503 6.176864,13.506323 13.843767,13.506323 7.656352,0 13.783558,-5.464829 13.783558,-13.493721 l -0.0126,-41.854745 c 0.005,-0.776888 0.03082,-1.394573 0.117617,-2.25152 C 61.643737,35.138872 70.9782,27.337231 81.546179,27.337231 Z"
       transform="matrix(0.36906494,0,0,0.36906494,-2.2714866e-7,0.46879714)"
       style="fill:#089b89;fill-opacity:1" /></g></svg>
