<?xml version="1.0" encoding="UTF-8" standalone="no"?>
<svg
   height="22"
   width="22"
   version="1.1"
   id="svg8"
   sodipodi:docname="network-vpn-off.svg"
   inkscape:version="1.2.2 (b0a8486541, 2022-12-01)"
   xml:space="preserve"
   xmlns:inkscape="http://www.inkscape.org/namespaces/inkscape"
   xmlns:sodipodi="http://sodipodi.sourceforge.net/DTD/sodipodi-0.dtd"
   xmlns="http://www.w3.org/2000/svg"
   xmlns:svg="http://www.w3.org/2000/svg"><path
     id="path299"
     style="fill:#eff0f1;fill-opacity:1"
     class="ColorScheme-Text"
     d="M 11 3 C 11 3 10.021993 4.2922551 7.3984375 5.3007812 L 10.021484 7.9238281 C 10.310951 7.7609443 10.644193 7.6660156 11 7.6660156 C 12.104565 7.6660156 13 8.5614167 13 9.6660156 C 13 10.021695 12.900727 10.351272 12.736328 10.638672 L 16.507812 14.410156 C 18.99529 10.607826 19 6.3242188 19 6.3242188 C 13.000006 5.6575194 11 3 11 3 z M 4.078125 6.1777344 C 3.7338871 6.2338257 3.3749996 6.28255 3 6.3242188 C 3 6.3242188 3.000008 15.658103 11 19 C 12.444519 18.39657 13.625747 17.597255 14.595703 16.693359 L 12.236328 14.333984 L 9.6660156 14.333984 L 10.091797 12.189453 L 4.0800781 6.1777344 L 4.078125 6.1777344 z " /><sodipodi:namedview
     id="namedview10"
     pagecolor="#505050"
     bordercolor="#eeeeee"
     borderopacity="1"
     inkscape:showpageshadow="0"
     inkscape:pageopacity="0"
     inkscape:pagecheckerboard="0"
     inkscape:deskcolor="#505050"
     showgrid="false"
     inkscape:zoom="45.254834"
     inkscape:cx="8.8940774"
     inkscape:cy="8.8609318"
     inkscape:window-width="1880"
     inkscape:window-height="1051"
     inkscape:window-x="40"
     inkscape:window-y="0"
     inkscape:window-maximized="1"
     inkscape:current-layer="svg8" /><defs
     id="defs4157"><style
       id="current-color-scheme"
       type="text/css">
      .ColorScheme-Text {
        color:#eff0f1;
      }
      .ColorScheme-NegativeText{
        color:#e74c3c;
      }
    </style><style
       type="text/css"
       id="current-color-scheme-3">
      .ColorScheme-Text {
        color:#eff0f1;
      }
      </style><style
       type="text/css"
       id="current-color-scheme-6">
      .ColorScheme-Text {
        color:#eff0f1;
      }
      </style><style
       id="current-color-scheme-5"
       type="text/css">
      .ColorScheme-Text {
        color:#eff0f1;
      }
      .ColorScheme-NegativeText{
        color:#e74c3c;
      }
    </style></defs><path
     id="path6"
     style="fill:currentColor;fill-opacity:1"
     class="ColorScheme-NegativeText"
     d="M 3.6992188,3 3,3.6992188 18.300781,19 19,18.300781 Z"
     inkscape:label="red line" /><style
     type="text/css"
     id="current-color-scheme-3-3">
        .ColorScheme-Text {
            color:#eff0f1;
        }
    </style></svg>
