<?xml version="1.0" encoding="UTF-8" standalone="no"?>
<svg
   height="24"
   width="24"
   viewBox="0 0 24 24"
   version="1.1"
   id="svg10"
   sodipodi:docname="battery-090-charging.svg"
   xml:space="preserve"
   inkscape:version="1.2.1 (9c6d41e410, 2022-07-14)"
   xmlns:inkscape="http://www.inkscape.org/namespaces/inkscape"
   xmlns:sodipodi="http://sodipodi.sourceforge.net/DTD/sodipodi-0.dtd"
   xmlns="http://www.w3.org/2000/svg"
   xmlns:svg="http://www.w3.org/2000/svg"><sodipodi:namedview
     id="namedview12"
     pagecolor="#505050"
     bordercolor="#eeeeee"
     borderopacity="1"
     inkscape:showpageshadow="0"
     inkscape:pageopacity="0"
     inkscape:pagecheckerboard="0"
     inkscape:deskcolor="#505050"
     showgrid="false"
     inkscape:zoom="22.627417"
     inkscape:cx="13.258252"
     inkscape:cy="14.628272"
     inkscape:window-width="1880"
     inkscape:window-height="1051"
     inkscape:window-x="40"
     inkscape:window-y="0"
     inkscape:window-maximized="1"
     inkscape:current-layer="svg10" /><defs
     id="defs1"><style
       type="text/css"
       id="current-color-scheme">
            .ColorScheme-Text {
                color:#eff0f1;
            }
            .ColorScheme-PositiveText {
                color:#27ae60;
            }
        </style></defs><g
     transform="rotate(-90,12,11)"
     id="g8"><path
       style="fill:currentColor;fill-opacity:1;stroke:none"
       class="ColorScheme-Text"
       d="m 3,7 v 8 H 18 L 16,7 Z M 1,5 v 12 h 19 v -4 h 0.5 c 0.277,0 0.5,-0.223 0.5,-0.5 v -3 C 21,9.223 20.777,9 20.5,9 H 20 V 5 H 3 Z M 2,6 H 19 V 16 H 2 Z"
       fill-rule="evenodd"
       id="path4" /></g><g
     id="g798"
     transform="matrix(0.03164226,0,0,0.03164226,4.0222573,5.8607344)"
     style="fill:#73777a;fill-opacity:1"><path
       style="fill:#73777a;fill-opacity:1"
       d="m 339.772,0 c 0,0 44.536,108.954 -146.337,182.138 -103.716,39.755 -183.376,141.651 -88.262,299.055 7.877,-70.357 41.653,-225.485 186.888,-260.884 0,0 -135.176,50.546 -147.117,279.347 69.459,9.752 232.361,16.305 280.726,-125.062 C 489.536,187.817 339.772,0 339.772,0 Z"
       id="path724" /></g></svg>
