<?xml version="1.0" encoding="UTF-8" standalone="no"?>
<svg
   version="1.1"
   id="svg2"
   width="327.67999"
   height="327.67999"
   viewBox="0 0 327.67999 327.67999"
   sodipodi:docname="spotdl.svg"
   inkscape:version="1.2.2 (b0a8486541, 2022-12-01)"
   xmlns:inkscape="http://www.inkscape.org/namespaces/inkscape"
   xmlns:sodipodi="http://sodipodi.sourceforge.net/DTD/sodipodi-0.dtd"
   xmlns="http://www.w3.org/2000/svg"
   xmlns:svg="http://www.w3.org/2000/svg"
   xmlns:rdf="http://www.w3.org/1999/02/22-rdf-syntax-ns#"
   xmlns:cc="http://creativecommons.org/ns#"
   xmlns:dc="http://purl.org/dc/elements/1.1/">
  <metadata
     id="metadata8">
    <rdf:RDF>
      <cc:Work
         rdf:about="">
        <dc:format>image/svg+xml</dc:format>
        <dc:type
           rdf:resource="http://purl.org/dc/dcmitype/StillImage" />
        <dc:title />
      </cc:Work>
    </rdf:RDF>
  </metadata>
  <defs
     id="defs6" />
  <sodipodi:namedview
     pagecolor="#ffffff"
     bordercolor="#666666"
     borderopacity="1"
     objecttolerance="10"
     gridtolerance="10"
     guidetolerance="10"
     inkscape:pageopacity="0"
     inkscape:pageshadow="2"
     inkscape:window-width="1880"
     inkscape:window-height="1051"
     id="namedview4"
     showgrid="false"
     inkscape:zoom="2"
     inkscape:cx="75.75"
     inkscape:cy="194.5"
     inkscape:window-x="40"
     inkscape:window-y="0"
     inkscape:window-maximized="1"
     inkscape:current-layer="g10"
     inkscape:document-rotation="0"
     inkscape:showpageshadow="0"
     inkscape:pagecheckerboard="0"
     inkscape:deskcolor="#d1d1d1" />
  <g
     inkscape:groupmode="layer"
     inkscape:label="Image"
     id="g10"
     style="display:inline">
    <g
       id="g14"
       style="display:inline">
      <path
         style="display:inline;fill:#1cd55e;stroke-width:0.32"
         d="M 154.4,292.60038 C 134.64213,290.59235 120.83956,286.67175 105.11475,278.60099 92.369895,272.0597 81.96857,264.37767 71.782225,253.98283 61.903624,243.90204 54.728616,233.86732 48.513503,221.43999 c -9.236903,-18.46948 -13.633504,-37.04462 -13.633504,-57.6 0,-20.79618 4.449389,-39.38925 13.898755,-58.07999 C 55.455282,92.553901 63.122516,82.121114 73.884926,71.598107 94.444704,51.495656 119.54537,39.46924 148.96,35.627589 c 6.39715,-0.835488 23.34091,-0.837116 29.75999,-0.0029 18.0775,2.349453 33.68594,7.496365 48.96,16.144662 14.76205,8.358387 29.29488,21.285459 39.84,35.438002 7.89317,10.593376 14.91402,24.166907 19.06236,36.853577 2.78485,8.51677 4.84674,18.53158 5.74427,27.90052 0.60187,6.28263 0.59744,17.67581 -0.009,23.8785 -0.25823,2.64 -0.47128,4.83251 -0.47344,4.87225 -0.002,0.0397 -1.33685,-0.96826 -2.96598,-2.24 -8.70577,-6.79591 -19.21307,-11.84018 -29.40648,-14.11725 -10.77165,-2.40624 -22.37442,-2.42108 -32.98688,-0.0422 l -3.43543,0.77008 -2.80457,-1.29693 C 203.0258,155.82339 182.56907,150.52343 160.32,148.26059 c -7.82477,-0.79582 -28.52989,-0.79491 -36.16,0.002 -10.89311,1.1371 -20.66243,2.90869 -29.690886,5.38421 -5.434771,1.49016 -6.476243,1.97326 -8.293808,3.84721 -2.006227,2.06847 -2.808761,4.07607 -2.792803,6.98641 0.02234,4.07157 2.056166,7.26535 5.737494,9.00972 2.364861,1.12057 5.162378,1.219 8.206291,0.28876 12.334472,-3.76951 29.344982,-6.09481 44.593712,-6.09586 16.65592,-0.001 35.00552,2.62384 50.39999,7.20993 2.552,0.76026 5.04542,1.53646 5.54093,1.7249 l 0.90092,0.34261 -2.50092,1.97131 c -3.43839,2.71026 -9.08663,8.47963 -11.78093,12.03358 -1.232,1.62509 -2.41442,2.95479 -2.6276,2.95488 -0.21319,9e-5 -1.64697,-0.29348 -3.18619,-0.65238 -3.56009,-0.8301 -11.18037,-2.07433 -16.7462,-2.73429 -5.83776,-0.6922 -23.19348,-0.96718 -30.27016,-0.47959 -10.49383,0.72304 -20.81821,2.15724 -31.649843,4.3966 -6.342041,1.31117 -7.590307,1.79241 -9.154761,3.52941 -4.362359,4.84347 -1.729588,12.29067 4.724911,13.36515 0.971546,0.16174 2.812304,-0.0879 6.827803,-0.92589 23.12514,-4.82606 43.38386,-5.86139 62.56204,-3.19725 3.15156,0.4378 8.83662,1.42621 9.03789,1.57135 0.0428,0.0309 -0.36571,1.26911 -0.90787,2.75161 -2.86754,7.84106 -4.25219,16.01296 -4.25219,25.09545 0,19.31925 6.53326,35.79292 20.23341,51.01868 1.34817,1.49831 1.88622,2.30759 1.6,2.4066 -0.87077,0.3012 -5.99868,1.17262 -10.67124,1.81343 -3.76892,0.51688 -6.89652,0.67907 -14.56,0.75503 -5.36799,0.0532 -10.33599,0.0382 -11.03999,-0.0333 z m 96.30865,-142.54363 c 9.27499,-3.47021 10.54586,-16.25409 2.1416,-21.54269 -2.38784,-1.50262 -8.97105,-4.96767 -12.769,-6.72094 -20.59684,-9.5082 -44.68006,-15.40935 -73.52126,-18.01502 -8.89547,-0.80367 -34.29644,-0.80168 -43.03999,0.003 -12.17806,1.12127 -23.30639,2.88539 -32.480003,5.1489 -9.02591,2.22707 -11.475187,3.30041 -13.684937,5.99712 -2.019913,2.46504 -2.607405,4.17511 -2.622121,7.6325 -0.01171,2.75142 0.08106,3.23746 0.977315,5.12 1.905267,4.00196 5.720281,6.65596 10.008719,6.96279 1.763508,0.12618 2.886986,-0.049 6.448307,-1.00566 11.78216,-3.16486 22.33915,-4.90273 36.47272,-6.00405 6.49089,-0.50578 25.9317,-0.50752 32.64,-0.003 30.86347,2.32158 57.56922,9.34871 76.60746,20.15785 1.91811,1.08902 4.07811,2.18736 4.8,2.44074 2.00547,0.70393 5.9035,0.62035 8.02119,-0.17199 z"
         id="path18" />
      <path
         style="display:inline;fill:#181313;stroke-width:0.32"
         d="m 94.879997,211.22077 c -5.999152,-1.46049 -8.184838,-8.63342 -4.034761,-13.2412 1.564454,-1.73699 2.81272,-2.21823 9.154761,-3.5294 17.392463,-3.59577 30.574363,-4.87673 47.329843,-4.5993 12.512,0.20717 20.36391,1.05088 30.7847,3.30793 l 3.87454,0.83918 -1.9117,3.04163 c -1.05143,1.6729 -2.85377,4.98211 -4.0052,7.3538 l -2.09351,4.31218 -1.14934,-0.19426 c -0.63213,-0.10683 -2.30134,-0.3978 -3.70934,-0.64658 -19.60854,-3.46468 -42.018,-2.61217 -66.62436,2.53455 -5.552747,1.16143 -6.014593,1.21124 -7.615633,0.82147 z M 195.19999,175.78954 c -30.14069,-9.88141 -69.4759,-10.68965 -97.873702,-2.01106 -3.043913,0.93024 -5.84143,0.8318 -8.206291,-0.28877 -3.681328,-1.74436 -5.715168,-4.93815 -5.737494,-9.00972 -0.01597,-2.91033 0.786576,-4.91793 2.792803,-6.9864 1.817565,-1.87395 2.859037,-2.35705 8.293808,-3.84722 9.028456,-2.47551 18.797776,-4.2471 29.690886,-5.3842 7.63011,-0.79649 28.33523,-0.7974 36.16,-0.002 22.04246,2.24182 41.13054,7.13582 59.11489,15.15648 1.8012,0.8033 3.20764,1.56937 3.12544,1.70238 -0.0822,0.133 -0.82798,0.41268 -1.65727,0.6215 -4.77194,1.20159 -13.25824,5.22749 -18.82307,8.92968 -1.76,1.1709 -3.272,2.1495 -3.36,2.17468 -0.088,0.0252 -1.672,-0.44992 -3.52,-1.05577 z m 47.48747,-25.5608 c -0.72189,-0.25338 -2.88189,-1.35171 -4.8,-2.44074 -16.49194,-9.36345 -40.46102,-16.36634 -65.40747,-19.10966 -10.3961,-1.14325 -16.21217,-1.44552 -27.67999,-1.43856 -20.58644,0.0125 -35.70366,1.84995 -52.63272,6.39735 -3.561321,0.95662 -4.684799,1.13183 -6.448307,1.00566 -4.288438,-0.30684 -8.103452,-2.96084 -10.008719,-6.96279 -0.896253,-1.88255 -0.989027,-2.36859 -0.977315,-5.12 0.01472,-3.45739 0.602208,-5.16747 2.622121,-7.63251 2.20975,-2.6967 4.659027,-3.77004 13.684937,-5.99711 9.173613,-2.26352 20.301943,-4.02764 32.480003,-5.14891 8.74355,-0.80505 34.14452,-0.80704 43.03999,-0.003 32.55335,2.94105 59.99281,10.33829 81.28,21.9118 6.75753,3.67396 7.94942,4.67723 9.52991,8.02179 2.98417,6.31501 -0.10355,13.89152 -6.66125,16.34507 -2.11769,0.79233 -6.01572,0.87591 -8.02119,0.17199 z"
         id="path16" />
    </g>
    <circle
       style="display:inline;fill:#0eabf3;fill-opacity:1;fill-rule:evenodd;stroke-width:4.0252;stroke-linecap:round;stroke-miterlimit:20.5;paint-order:stroke markers fill"
       id="path416"
       cx="242.11459"
       cy="236.41054"
       r="74.625" />
    <path
       style="fill:#f3f3f3;fill-opacity:1;fill-rule:evenodd;stroke-width:4.0252;stroke-linecap:round;stroke-miterlimit:20.5;paint-order:stroke markers fill"
       d="m 229.4375,195.125 h 27.1875 v 27.4375 h 17.77663 L 242.8694,254.09472 211.77848,223.0038 h 17.72187 z"
       id="path1404" />
    <rect
       style="fill:#f3f3f3;fill-opacity:1;fill-rule:evenodd;stroke-width:4.0252;stroke-linecap:round;stroke-miterlimit:20.5;paint-order:stroke markers fill"
       id="rect1728"
       width="63.241863"
       height="9.0597925"
       x="210.9388"
       y="264.28116" />
  </g>
</svg>
