<?xml version="1.0" encoding="UTF-8" standalone="no"?>
<svg
   height="24"
   width="24"
   viewBox="0 0 24 24"
   version="1.1"
   id="svg8"
   sodipodi:docname="whatsapp-message.svg"
   xml:space="preserve"
   inkscape:version="1.2.2 (b0a8486541, 2022-12-01)"
   xmlns:inkscape="http://www.inkscape.org/namespaces/inkscape"
   xmlns:sodipodi="http://sodipodi.sourceforge.net/DTD/sodipodi-0.dtd"
   xmlns:xlink="http://www.w3.org/1999/xlink"
   xmlns="http://www.w3.org/2000/svg"
   xmlns:svg="http://www.w3.org/2000/svg"><sodipodi:namedview
     id="namedview10"
     pagecolor="#505050"
     bordercolor="#eeeeee"
     borderopacity="1"
     inkscape:showpageshadow="0"
     inkscape:pageopacity="0"
     inkscape:pagecheckerboard="0"
     inkscape:deskcolor="#505050"
     showgrid="false"
     inkscape:zoom="16"
     inkscape:cx="-2.46875"
     inkscape:cy="11.6875"
     inkscape:window-width="1880"
     inkscape:window-height="1051"
     inkscape:window-x="40"
     inkscape:window-y="0"
     inkscape:window-maximized="1"
     inkscape:current-layer="svg8" /><defs
     id="defs1"><inkscape:path-effect
       effect="spiro"
       id="path-effect2969"
       is_visible="true"
       lpeversion="1" /><style
       type="text/css"
       id="current-color-scheme">
            .ColorScheme-Text {
                color:#eff0f1;
            }
        </style><filter
       inkscape:label="Fill Background"
       inkscape:menu="Fill and Transparency"
       inkscape:menu-tooltip="Adds a colorizable opaque background"
       style="color-interpolation-filters:sRGB;"
       id="filter843"><feFlood
         result="result1"
         flood-color="rgb(255,0,0)"
         flood-opacity="1"
         id="feFlood845" /><feImage
         xlink:href=""
         result="result2"
         id="feImage847" /><feBlend
         result="result4"
         in2="result1"
         mode="multiply"
         id="feBlend849" /><feMerge
         result="result3"
         id="feMerge851"><feMergeNode
           in="result1"
           id="feMergeNode853" /><feMergeNode
           in="SourceGraphic"
           id="feMergeNode855" /></feMerge></filter></defs><path
     id="path1890"
     style="color:#000000;display:inline;fill:#f3f3f3;fill-rule:evenodd;stroke-linecap:round;stroke-linejoin:bevel;-inkscape-stroke:none;paint-order:stroke markers fill;fill-opacity:1"
     d="M 12,3.3769531 C 7.2435833,3.3769529 3.3769529,7.2435833 3.3769531,12 c 0,1.623803 0.4515215,3.143458 1.234375,4.441406 l -0.8261719,3.976563 3.984375,-0.90625 C 9.0201697,20.218651 10.463155,20.623047 12,20.623047 c 4.756416,0 8.623047,-3.866631 8.623047,-8.623047 0,-4.7564165 -3.866631,-8.6230469 -8.623047,-8.6230469 z m 0,1 c 4.215979,0 7.623047,3.4070687 7.623047,7.6230469 0,4.215978 -3.407069,7.623047 -7.623047,7.623047 -1.514824,0 -2.923933,-0.441985 -4.109375,-1.201172 l -1.2851562,0.298828 c -3.884e-4,-3.12e-4 -0.00156,3.12e-4 -0.00195,0 l -0.3203125,0.07227 -1.1640625,0.269531 0.00391,-0.0059 -0.00586,0.002 0.21875,-1.056641 0.089844,-0.429687 0.2636719,-1.289063 c -0.828457,-1.219886 -1.3125,-2.694629 -1.3125,-4.283203 -2e-7,-4.2159783 3.4070686,-7.623047 7.6230473,-7.6230469 z" /><path
     style="clip-rule:evenodd;fill-rule:evenodd;stroke-linejoin:miter;stroke-miterlimit:1.41421;fill:#3daee9;fill-opacity:1;stroke:#000000;stroke-width:0;stroke-linecap:butt;stroke-dasharray:none;stroke-opacity:1"
     id="path904"
     sodipodi:type="arc"
     sodipodi:cx="17.079062"
     sodipodi:cy="7.2755213"
     sodipodi:rx="2.6593695"
     sodipodi:ry="2.6593695"
     sodipodi:start="0"
     sodipodi:end="6.2744587"
     sodipodi:open="true"
     d="M 19.738431,7.2755213 A 2.6593695,2.6593695 0 0 1 17.084863,9.9348844 2.6593695,2.6593695 0 0 1 14.419717,7.2871249 2.6593695,2.6593695 0 0 1 17.061656,4.6162088 2.6593695,2.6593695 0 0 1 19.73833,7.2523143"
     inkscape:transform-center-x="-0.23638866"
     inkscape:transform-center-y="-0.70916464"
     sodipodi:arc-type="arc" /><path
     d="M 10.143887,14.115884 C 8.8733305,13.000564 7.9060427,11.537474 7.4004144,9.8605516 7.2618938,9.3931314 7.3410214,8.8876014 7.6169131,8.4854919 7.8928047,8.0833823 8.3358504,7.8272673 8.8217032,7.7880199 l 0.046815,-0.00295 c 0,0 0.550477,0.053313 0.8518598,0.083347 0.119771,0.01195 0.225113,0.082296 0.282216,0.1876914 0.193677,0.3636381 0.650339,1.217452 0.865764,1.6189893 0.06993,0.1302959 0.05216,0.2906162 -0.04308,0.4029914 -0.188291,0.220527 -0.499396,0.585044 -0.69317,0.81324 -0.104167,0.12255 -0.114424,0.299 -0.02482,0.431807 0.357066,0.527637 0.780226,1.005669 1.256959,1.422663 0.486133,0.403844 1.024743,0.745866 1.602371,1.014788 0.146364,0.06739 0.318606,0.0291 0.422778,-0.09345 0.19487,-0.227413 0.505974,-0.59193 0.693325,-0.8123 0.09618,-0.112535 0.25136,-0.15474 0.391627,-0.106611 0.43019,0.148611 1.345675,0.46371 1.73485,0.597899 0.113653,0.03903 0.200666,0.132701 0.230521,0.248418 0.07675,0.293289 0.21775,0.827878 0.21775,0.827878 l 0.0039,0.04665 c 0.03831,0.48601 -0.14383,0.964253 -0.497352,1.300099 -0.353366,0.336787 -0.83974,0.494871 -1.3232,0.432349 -1.74988,-0.235291 -3.359416,-0.967944 -4.666618,-2.059795 z"
     style="clip-rule:evenodd;display:inline;fill:#f3f3f3;fill-rule:evenodd;stroke-width:0.952377;stroke-linejoin:round;stroke-miterlimit:1.41421"
     id="path13" /></svg>
